<svg width="18" height="18" viewBox="0 0 18 18" fill="none" xmlns="http://www.w3.org/2000/svg">
  <mask id="mask0_1365_3943" style="mask-type:alpha" maskUnits="userSpaceOnUse" x="0" y="0" width="18" height="18">
    <rect x="0.983856" y="0.729858" width="17.0161" height="17.0161" fill="#D9D9D9"/>
  </mask>
  <g mask="url(#mask0_1365_3943)">
    <path d="M8.78291 12.783H10.2009V9.94695H13.0369V8.52894H10.2009V5.69292H8.78291V8.52894H5.94689V9.94695H8.78291V12.783ZM9.49191 16.328C8.51112 16.328 7.58942 16.1419 6.72679 15.7697C5.86417 15.3974 5.1138 14.8923 4.4757 14.2542C3.83759 13.6161 3.33243 12.8657 2.9602 12.0031C2.58797 11.1404 2.40186 10.2187 2.40186 9.23795C2.40186 8.25716 2.58797 7.33545 2.9602 6.47282C3.33243 5.6102 3.83759 4.85984 4.4757 4.22173C5.1138 3.58363 5.86417 3.07846 6.72679 2.70623C7.58942 2.334 8.51112 2.14789 9.49191 2.14789C10.4727 2.14789 11.3944 2.334 12.257 2.70623C13.1197 3.07846 13.87 3.58363 14.5081 4.22173C15.1462 4.85984 15.6514 5.6102 16.0236 6.47282C16.3959 7.33545 16.582 8.25716 16.582 9.23795C16.582 10.2187 16.3959 11.1404 16.0236 12.0031C15.6514 12.8657 15.1462 13.6161 14.5081 14.2542C13.87 14.8923 13.1197 15.3974 12.257 15.7697C11.3944 16.1419 10.4727 16.328 9.49191 16.328ZM9.49191 14.91C11.0754 14.91 12.4166 14.3605 13.5155 13.2616C14.6145 12.1626 15.164 10.8214 15.164 9.23795C15.164 7.6545 14.6145 6.3133 13.5155 5.21434C12.4166 4.11538 11.0754 3.5659 9.49191 3.5659C7.90847 3.5659 6.56727 4.11538 5.46831 5.21434C4.36935 6.3133 3.81987 7.6545 3.81987 9.23795C3.81987 10.8214 4.36935 12.1626 5.46831 13.2616C6.56727 14.3605 7.90847 14.91 9.49191 14.91Z" fill="#1C1B1F"/>
  </g>
</svg>
