<svg width="15" height="15" viewBox="0 0 15 15" fill="none" xmlns="http://www.w3.org/2000/svg">
  <mask id="mask0_1365_3937" style="mask-type:alpha" maskUnits="userSpaceOnUse" x="0" y="0" width="15" height="15">
    <rect width="15" height="15" fill="#D9D9D9"/>
  </mask>
  <g mask="url(#mask0_1365_3937)">
    <path d="M2.5 8.89063H3.20313L3.5625 7.85937H5.1875L5.5625 8.89063H6.25L4.73438 4.85938H4.01563L2.5 8.89063ZM3.76563 7.28125L4.35938 5.60937H4.39063L4.98438 7.28125H3.76563ZM8.75 6.1875V5.125C9.09375 4.97917 9.44531 4.86979 9.80469 4.79687C10.1641 4.72396 10.5417 4.6875 10.9375 4.6875C11.2083 4.6875 11.474 4.70833 11.7344 4.75C11.9948 4.79167 12.25 4.84375 12.5 4.90625V5.90625C12.25 5.8125 11.9974 5.74219 11.7422 5.69531C11.487 5.64844 11.2188 5.625 10.9375 5.625C10.5417 5.625 10.1615 5.67448 9.79688 5.77344C9.43229 5.8724 9.08333 6.01042 8.75 6.1875ZM8.75 9.625V8.5625C9.09375 8.41667 9.44531 8.30729 9.80469 8.23438C10.1641 8.16146 10.5417 8.125 10.9375 8.125C11.2083 8.125 11.474 8.14583 11.7344 8.1875C11.9948 8.22917 12.25 8.28125 12.5 8.34375V9.34375C12.25 9.25 11.9974 9.17969 11.7422 9.13281C11.487 9.08594 11.2188 9.0625 10.9375 9.0625C10.5417 9.0625 10.1615 9.10938 9.79688 9.20313C9.43229 9.29688 9.08333 9.4375 8.75 9.625ZM8.75 7.90625V6.84375C9.09375 6.69792 9.44531 6.58854 9.80469 6.51563C10.1641 6.44271 10.5417 6.40625 10.9375 6.40625C11.2083 6.40625 11.474 6.42708 11.7344 6.46875C11.9948 6.51042 12.25 6.5625 12.5 6.625V7.625C12.25 7.53125 11.9974 7.46094 11.7422 7.41406C11.487 7.36719 11.2188 7.34375 10.9375 7.34375C10.5417 7.34375 10.1615 7.39323 9.79688 7.49219C9.43229 7.59115 9.08333 7.72917 8.75 7.90625ZM4.0625 10C4.55208 10 5.02865 10.0547 5.49219 10.1641C5.95573 10.2734 6.41667 10.4375 6.875 10.6563V4.5C6.44792 4.25 5.99479 4.0625 5.51563 3.9375C5.03646 3.8125 4.55208 3.75 4.0625 3.75C3.6875 3.75 3.3151 3.78646 2.94531 3.85937C2.57552 3.93229 2.21875 4.04167 1.875 4.1875V10.375C2.23958 10.25 2.60156 10.1563 2.96094 10.0938C3.32031 10.0313 3.6875 10 4.0625 10ZM8.125 10.6563C8.58333 10.4375 9.04427 10.2734 9.50781 10.1641C9.97136 10.0547 10.4479 10 10.9375 10C11.3125 10 11.6797 10.0313 12.0391 10.0938C12.3984 10.1563 12.7604 10.25 13.125 10.375V4.1875C12.7813 4.04167 12.4245 3.93229 12.0547 3.85937C11.6849 3.78646 11.3125 3.75 10.9375 3.75C10.4479 3.75 9.96354 3.8125 9.48438 3.9375C9.00521 4.0625 8.55208 4.25 8.125 4.5V10.6563ZM7.5 12.5C7 12.1042 6.45833 11.7969 5.875 11.5781C5.29167 11.3594 4.6875 11.25 4.0625 11.25C3.625 11.25 3.19531 11.3073 2.77344 11.4219C2.35156 11.5365 1.94792 11.6979 1.5625 11.9063C1.34375 12.0208 1.13281 12.0156 0.929688 11.8906C0.726563 11.7656 0.625 11.5833 0.625 11.3438V3.8125C0.625 3.69792 0.653646 3.58854 0.710938 3.48438C0.768229 3.38021 0.854167 3.30208 0.96875 3.25C1.44792 3 1.94792 2.8125 2.46875 2.6875C2.98958 2.5625 3.52083 2.5 4.0625 2.5C4.66667 2.5 5.25781 2.57812 5.83594 2.73438C6.41406 2.89062 6.96875 3.125 7.5 3.4375C8.03125 3.125 8.58594 2.89062 9.16406 2.73438C9.74219 2.57812 10.3333 2.5 10.9375 2.5C11.4792 2.5 12.0104 2.5625 12.5313 2.6875C13.0521 2.8125 13.5521 3 14.0313 3.25C14.1458 3.30208 14.2318 3.38021 14.2891 3.48438C14.3464 3.58854 14.375 3.69792 14.375 3.8125V11.3438C14.375 11.5833 14.2734 11.7656 14.0703 11.8906C13.8672 12.0156 13.6563 12.0208 13.4375 11.9063C13.0521 11.6979 12.6484 11.5365 12.2266 11.4219C11.8047 11.3073 11.375 11.25 10.9375 11.25C10.3125 11.25 9.70833 11.3594 9.125 11.5781C8.54167 11.7969 8 12.1042 7.5 12.5Z" fill="#1C1B1F"/>
  </g>
</svg>
