<svg xmlns="http://www.w3.org/2000/svg" width="665.385" height="196.58" viewBox="0 0 665.385 196.58">
  <g id="Filmuage" transform="translate(-963.486 -615.884)">
    <path id="Path_3" data-name="Path 3" d="M268.556,166.026v-48.99c0-7.443-.9-10.837-1.663-12.374-.875-1.7-2.718-3.951-8.554-3.951-3.834,0-6.581,1.222-8.4,3.736-2.032,2.809-3.062,7.307-3.062,13.368v48.211H218.186V117.5c0-8.192-.711-11.209-1.143-12.285-.838-1.943-2.682-4.507-8.919-4.507a9.919,9.919,0,0,0-6.831,2.6l-.1.079c-3.156,2.582-4.69,6.688-4.69,12.551v50.083H167.816V78.8h27.447v5.819a31.219,31.219,0,0,1,21.566-8c6.359,0,11.813,1.273,16.212,3.785a23.724,23.724,0,0,1,7.645,6.954,30.291,30.291,0,0,1,23.871-10.739,44.858,44.858,0,0,1,13.88,1.966,26.492,26.492,0,0,1,10.47,6.189,25.94,25.94,0,0,1,6.327,10.313,42.745,42.745,0,0,1,2.012,13.686v57.253Zm-140.848,0V48.092H156.4V166.026Zm-40.11,0V80.8H116.29v85.225ZM2,117.935V0H87.658V27.21H33.023V48.3H79.506V72.949H33.023v44.986ZM87.6,72.964V48.092H116.29V72.964Z" transform="translate(961.486 615.884)" fill="#1083ff"/>
    <path id="Path_4" data-name="Path 4" d="M290.141,136.98c-8.495-5.251-11.1-10.794-11.687-20.416l28.437-.973c.874,3.658,1.2,6.522,11.262,6.522,4.966,0,8.505-1.267,10.823-3.878,2.385-2.684,3.593-6.976,3.593-12.758v-1.745a25.942,25.942,0,0,1-5.086,3.445,34.593,34.593,0,0,1-16.014,3.486c-12.43,0-22.153-4.475-28.9-13.3l-.015-.021a41.15,41.15,0,0,1-6.6-13.6,62.331,62.331,0,0,1-2.146-16.924,53.56,53.56,0,0,1,2.373-16.289,41.99,41.99,0,0,1,7.2-13.515c6.951-8.9,16.455-13.419,28.248-13.419A33.048,33.048,0,0,1,327.5,27.227,26.173,26.173,0,0,1,332.57,30.8V25.778h27.6v78.764c0,12.858-3.894,22.714-11.574,29.295a37.5,37.5,0,0,1-14.263,7.361,70.218,70.218,0,0,1-19.134,2.358C305.6,143.556,297.171,141.345,290.141,136.98Zm16.153-84.534-.066.094C303.752,56,302.5,60.7,302.5,66.507c0,6,1.146,10.928,3.4,14.64l.012.021c2.524,4.219,6.068,6.183,11.155,6.183a13.441,13.441,0,0,0,11.5-5.531l.024-.033c2.678-3.489,3.979-7.876,3.979-13.41,0-7.48-1.354-13.059-4.028-16.58-2.5-3.289-6.25-4.888-11.476-4.888C312.3,46.909,308.771,48.72,306.294,52.446Zm73.121,49.933a42.26,42.26,0,0,1-9.044-14.688,53.377,53.377,0,0,1-2.978-18.224c0-13.083,4.15-24.1,12.335-32.758,8.231-8.7,19-13.115,32.016-13.115,14.108,0,25.2,5.383,32.979,16a46.884,46.884,0,0,1,7.686,16.127,54.719,54.719,0,0,1,1.657,18.252l-.195,3.107H396.4c.616,4.224,2.006,8.474,4.15,10.691,2.664,2.757,6.579,4.1,11.966,4.1A16.853,16.853,0,0,0,422.19,89l.107-.069c2.453-1.507,3.947-3.206,4.442-5.049l26.77-.1a41.717,41.717,0,0,1-16.048,24c-6.814,4.913-15.467,7.4-25.716,7.4C398.318,115.185,387.44,110.878,379.416,102.38ZM399.4,51.9a14.792,14.792,0,0,0-2.8,5.524h27.882c-2.922-9.333-8.9-10.513-13.367-10.513C405.915,46.909,402.082,48.54,399.4,51.9ZM192.794,108.524c-6.076-4.9-9.157-11.9-9.157-20.818,0-9.309,3.346-16.407,9.945-21.1l.063-.043c4.6-3.116,11.2-5.279,20.178-6.612l.028,0c13.864-1.933,17.126-2.44,17.778-2.566l.051-.013c5.437-1.39,5.437-3.734,5.437-4.736,0-4.143-1.533-5.5-2.687-6.161l-.061-.036c-1.06-.637-3.35-1.4-8.248-1.4-3.694,0-6.488.766-8.3,2.276-1.746,1.452-2.733,3.7-3.016,6.863l-.271,3.021H185.9l.229-3.533c.7-10.679,5.476-18.7,14.213-23.841a41.5,41.5,0,0,1,12.058-4.7A66.756,66.756,0,0,1,227.209,23.6,77.248,77.248,0,0,1,243.347,25.1a36.35,36.35,0,0,1,12.128,4.755,22.013,22.013,0,0,1,7.759,8.427,25.038,25.038,0,0,1,2.574,11.543V91.76c0,10.842,1.441,14.789,2.3,16.177L271.244,113H240.5l-.737-2.3q-.4-1.249-.71-2.443c-6.467,4.6-14.761,6.927-24.746,6.927C205.483,115.185,198.246,112.945,192.794,108.524ZM229.4,77.114c-7.929,1.224-11.183,2.151-12.515,2.715-3.151,1.439-4.556,3.581-4.556,6.942,0,2.264,0,6.973,10.217,6.973,10.077,0,14.571-4.7,14.571-15.234v-3A50.418,50.418,0,0,1,229.4,77.114ZM112.168,112.659a24,24,0,0,1-10.717-7.979,29.448,29.448,0,0,1-5.01-11.034,63.5,63.5,0,0,1-1.573-14.98V25.778h28.692V74.613c0,5.861.981,10.206,2.917,12.916,1.739,2.431,4.256,3.564,7.922,3.564,4.948,0,8.352-1.346,10.4-4.116,2.251-3.037,3.391-8.3,3.391-15.638V25.778h28.69V113h-27.6v-5.8a28.624,28.624,0,0,1-5.838,4.23,32.768,32.768,0,0,1-15.883,3.755A42.344,42.344,0,0,1,112.168,112.659Z" transform="translate(1174.663 668.907)" fill="#8519c4"/>
  </g>
</svg>
