<svg width="18" height="18" viewBox="0 0 18 18" fill="none" xmlns="http://www.w3.org/2000/svg">
  <mask id="mask0_1257_302" style="mask-type:alpha" maskUnits="userSpaceOnUse" x="0" y="0" width="18" height="18">
    <rect width="18" height="18" fill="#D9D9D9"/>
  </mask>
  <g mask="url(#mask0_1257_302)">
    <path d="M9 12.75C9.825 12.75 10.5312 12.4562 11.1187 11.8687C11.7062 11.2812 12 10.575 12 9.75H6C6 10.575 6.29375 11.2812 6.88125 11.8687C7.46875 12.4562 8.175 12.75 9 12.75ZM5.25 6.75H8.25C8.25 6.3375 8.10312 5.98438 7.80937 5.69063C7.51562 5.39688 7.1625 5.25 6.75 5.25C6.3375 5.25 5.98438 5.39688 5.69063 5.69063C5.39688 5.98438 5.25 6.3375 5.25 6.75ZM9.75 6.75H12.75C12.75 6.3375 12.6031 5.98438 12.3094 5.69063C12.0156 5.39688 11.6625 5.25 11.25 5.25C10.8375 5.25 10.4844 5.39688 10.1906 5.69063C9.89688 5.98438 9.75 6.3375 9.75 6.75ZM9 16.5C8.0625 16.5 7.18438 16.3219 6.36563 15.9656C5.54688 15.6094 4.83438 15.1281 4.22813 14.5219C3.62188 13.9156 3.14063 13.2031 2.78438 12.3844C2.42813 11.5656 2.25 10.6875 2.25 9.75V1.5H15.75V9.75C15.75 10.6875 15.5719 11.5656 15.2156 12.3844C14.8594 13.2031 14.3781 13.9156 13.7719 14.5219C13.1656 15.1281 12.4531 15.6094 11.6344 15.9656C10.8156 16.3219 9.9375 16.5 9 16.5ZM9 15C10.45 15 11.6875 14.4875 12.7125 13.4625C13.7375 12.4375 14.25 11.2 14.25 9.75V3H3.75V9.75C3.75 11.2 4.2625 12.4375 5.2875 13.4625C6.3125 14.4875 7.55 15 9 15Z" fill="#0E69CB"/>
  </g>
</svg>
