<svg width="14" height="15" viewBox="0 0 14 15" fill="none" xmlns="http://www.w3.org/2000/svg">
  <mask id="mask0_1257_302" style="mask-type:alpha" maskUnits="userSpaceOnUse" x="0" y="0" width="14" height="15">
    <rect y="0.5" width="14" height="14" fill="#D9D9D9"/>
  </mask>
  <g mask="url(#mask0_1257_302)">
    <path d="M7 10.4167C7.64167 10.4167 8.19097 10.1882 8.64792 9.73124C9.10486 9.2743 9.33333 8.72499 9.33333 8.08332H4.66667C4.66667 8.72499 4.89514 9.2743 5.35208 9.73124C5.80903 10.1882 6.35833 10.4167 7 10.4167ZM4.08333 5.74999H6.41667C6.41667 5.42916 6.30243 5.1545 6.07396 4.92603C5.84549 4.69756 5.57083 4.58332 5.25 4.58332C4.92917 4.58332 4.65451 4.69756 4.42604 4.92603C4.19757 5.1545 4.08333 5.42916 4.08333 5.74999ZM7.58333 5.74999H9.91667C9.91667 5.42916 9.80243 5.1545 9.57396 4.92603C9.34549 4.69756 9.07083 4.58332 8.75 4.58332C8.42917 4.58332 8.15451 4.69756 7.92604 4.92603C7.69757 5.1545 7.58333 5.42916 7.58333 5.74999ZM7 13.3333C6.27083 13.3333 5.58785 13.1948 4.95104 12.9177C4.31424 12.6406 3.76007 12.2663 3.28854 11.7948C2.81701 11.3233 2.44271 10.7691 2.16563 10.1323C1.88854 9.49548 1.75 8.81249 1.75 8.08332V1.66666H12.25V8.08332C12.25 8.81249 12.1115 9.49548 11.8344 10.1323C11.5573 10.7691 11.183 11.3233 10.7115 11.7948C10.2399 12.2663 9.68576 12.6406 9.04896 12.9177C8.41215 13.1948 7.72917 13.3333 7 13.3333ZM7 12.1667C8.12778 12.1667 9.09028 11.768 9.8875 10.9708C10.6847 10.1736 11.0833 9.2111 11.0833 8.08332V2.83332H2.91667V8.08332C2.91667 9.2111 3.31528 10.1736 4.1125 10.9708C4.90972 11.768 5.87222 12.1667 7 12.1667Z" fill="#0E69CB"/>
  </g>
</svg>
